<svg aria-hidden="true" xmlns="http://www.w3.org/2000/svg" xmlns:xlink="http://www.w3.org/1999/xlink"><symbol viewBox="0 0 17 10" id="arrow-select" xmlns="http://www.w3.org/2000/svg">
<path fill-rule="evenodd" clip-rule="evenodd" d="M0.646484 1.35353L1.35359 0.646423L8.50004 7.79287L15.6465 0.646423L16.3536 1.35353L8.50004 9.20708L0.646484 1.35353Z"/>
</symbol><symbol viewBox="0 0 14 25" id="arrow-slider" xmlns="http://www.w3.org/2000/svg">
<path fill-rule="evenodd" clip-rule="evenodd" d="M13.5303 0.46967C13.2374 0.176777 12.7626 0.176777 12.4697 0.46967L0.96967 11.9697C0.676777 12.2626 0.676777 12.7374 0.96967 13.0303L12.4697 24.5303C12.7626 24.8232 13.2374 24.8232 13.5303 24.5303C13.8232 24.2374 13.8232 23.7626 13.5303 23.4697L2.56066 12.5L13.5303 1.53033C13.8232 1.23744 13.8232 0.762563 13.5303 0.46967Z"/>
</symbol><symbol viewBox="0 0 62 32" id="arrow-slider-long" xmlns="http://www.w3.org/2000/svg">
<path fill-rule="evenodd" clip-rule="evenodd" d="M45.2929 0.292893C44.9024 0.683417 44.9024 1.31658 45.2929 1.70711L58.5858 15H1C0.447716 15 0 15.4477 0 16C0 16.5523 0.447716 17 1 17H58.5858L45.2929 30.2929C44.9024 30.6834 44.9024 31.3166 45.2929 31.7071C45.6834 32.0976 46.3166 32.0976 46.7071 31.7071L61.7071 16.7071C62.0976 16.3166 62.0976 15.6834 61.7071 15.2929L46.7071 0.292893C46.3166 -0.0976311 45.6834 -0.0976311 45.2929 0.292893Z"/>
</symbol><symbol viewBox="0 0 19 24" id="cart" xmlns="http://www.w3.org/2000/svg">
<path fill-rule="evenodd" clip-rule="evenodd" d="M16.2907 3.84C16.8032 3.83988 17.2254 4.24237 17.2498 4.7543L18.1185 22.9943C18.131 23.2566 18.0356 23.5125 17.8544 23.7025C17.6732 23.8925 17.4221 24 17.1595 24H1.79949C1.53702 23.9999 1.28603 23.8923 1.10493 23.7023C0.92384 23.5123 0.828439 23.2565 0.840933 22.9943L1.70954 4.7543C1.73394 4.24241 2.1561 3.83993 2.66858 3.84H5.68615C5.68615 1.71923 7.40538 0 9.52615 0C11.6469 0 13.3661 1.71923 13.3661 3.84H16.2907ZM12.4061 3.84C12.4043 2.25017 11.116 0.961799 9.52614 0.96C7.93631 0.961799 6.64794 2.25017 6.64614 3.84H12.4061ZM2.66859 4.8H5.68616V8.16C5.68616 8.4251 5.90106 8.64 6.16616 8.64C6.43126 8.64 6.64616 8.4251 6.64616 8.16V4.8H12.4062V8.16C12.4062 8.4251 12.6211 8.64 12.8862 8.64C13.1513 8.64 13.3662 8.4251 13.3662 8.16V4.8H16.2797L16.9741 19.2H1.98286L2.66859 4.8ZM1.93668 20.16L1.7995 23.04H17.1595L17.0204 20.16H1.93668Z"/>
</symbol><symbol viewBox="0 0 22 19" id="catr-plus" xmlns="http://www.w3.org/2000/svg">
<path fill-rule="evenodd" clip-rule="evenodd" d="M21.3185 3.95208L18.7585 13.3388C18.7111 13.513 18.5593 13.6384 18.3794 13.6522L8.41454 14.4187L7.94341 15.3601H17.4935C17.7291 15.3601 17.9202 15.5512 17.9202 15.7868C17.9202 16.0225 17.7291 16.2135 17.4935 16.2135H7.2534C7.10552 16.2135 6.96816 16.137 6.8904 16.0112C6.81264 15.8854 6.80557 15.7283 6.8717 15.596L7.42211 14.4952L7.28557 14.5056L7.2534 14.5068C7.05747 14.5069 6.88664 14.3736 6.83919 14.1835L3.59504 1.16336C3.54305 0.979604 3.37513 0.8529 3.18416 0.853341H0.426671C0.191027 0.853341 0 0.662314 0 0.426671C0 0.191027 0.191027 0 0.426671 0H3.18416C3.76369 0.000889804 4.27074 0.390021 4.4215 0.949598L5.03736 3.4213C5.06462 3.41609 5.0923 3.41344 5.12005 3.41337H20.9069C21.0398 3.41338 21.1651 3.47535 21.2458 3.58098C21.3266 3.6866 21.3534 3.82381 21.3185 3.95208ZM9.38679 8.96006C9.38679 8.72441 9.57782 8.53338 9.81346 8.53338H11.9468V6.40003C11.9468 6.16439 12.1378 5.97336 12.3735 5.97336C12.6091 5.97336 12.8002 6.16439 12.8002 6.40003V8.53338H14.9335C15.1692 8.53338 15.3602 8.72441 15.3602 8.96006C15.3602 9.1957 15.1692 9.38673 14.9335 9.38673H12.8002V11.5201C12.8002 11.7557 12.6091 11.9467 12.3735 11.9467C12.1378 11.9467 11.9468 11.7557 11.9468 11.5201V9.38673H9.81346C9.57782 9.38673 9.38679 9.1957 9.38679 8.96006ZM5.24726 4.26672H20.3482L18.0138 12.8243L7.57979 13.6272L5.24726 4.26672ZM8.53344 17.0668C8.06215 17.0668 7.6801 17.4489 7.6801 17.9202C7.6801 18.3915 8.06215 18.7735 8.53344 18.7735C9.00473 18.7735 9.38678 18.3915 9.38678 17.9202C9.38678 17.4489 9.00473 17.0668 8.53344 17.0668ZM15.3602 17.9202C15.3602 17.4489 15.7423 17.0668 16.2135 17.0668C16.6848 17.0668 17.0669 17.4489 17.0669 17.9202C17.0669 18.3915 16.6848 18.7735 16.2135 18.7735C15.7423 18.7735 15.3602 18.3915 15.3602 17.9202Z"/>
</symbol><symbol viewBox="0 0 17 19" id="delete" xmlns="http://www.w3.org/2000/svg">
<path fill-rule="evenodd" clip-rule="evenodd" d="M15.6972 2.29715H12.0601L11.7033 0.870009C11.5755 0.358703 11.1161 5.13325e-06 10.589 0H5.49104C4.964 5.13325e-06 4.50459 0.358703 4.37677 0.870009L4.02002 2.29715H0.382859C0.171412 2.29715 0 2.46857 0 2.68001C0 2.89146 0.171412 3.06287 0.382859 3.06287H1.56972L2.28069 17.2866C2.31157 17.8977 2.816 18.3772 3.42781 18.3772H12.6912C13.3032 18.3772 13.8077 17.8972 13.8382 17.2859L14.5493 3.06287H15.6972C15.9087 3.06287 16.0801 2.89146 16.0801 2.68001C16.0801 2.46857 15.9087 2.29715 15.6972 2.29715ZM6.12553 13.4001C6.12553 13.6115 5.95411 13.7829 5.74267 13.7829C5.53122 13.7829 5.35981 13.6115 5.35981 13.4001V7.27433C5.35981 7.06289 5.53122 6.89147 5.74267 6.89147C5.95411 6.89147 6.12553 7.06289 6.12553 7.27433V13.4001ZM8.03973 14.5486C8.25117 14.5486 8.42259 14.3772 8.42259 14.1658V6.5086C8.42259 6.29715 8.25117 6.12574 8.03973 6.12574C7.82828 6.12574 7.65687 6.29715 7.65687 6.5086V14.1658C7.65687 14.3772 7.82828 14.5486 8.03973 14.5486ZM10.7204 13.4001C10.7204 13.6115 10.549 13.7829 10.3376 13.7829C10.1261 13.7829 9.95471 13.6115 9.95471 13.4001V7.27433C9.95471 7.06289 10.1261 6.89147 10.3376 6.89147C10.549 6.89147 10.7204 7.06289 10.7204 7.27433V13.4001ZM5.11937 1.05584L4.80911 2.29715H11.2705L10.9602 1.05584C10.9178 0.885236 10.7645 0.765523 10.5887 0.765711H5.49082C5.31503 0.765523 5.16176 0.885236 5.11937 1.05584Z"/>
</symbol><symbol viewBox="0 0 20 19" id="favorite" xmlns="http://www.w3.org/2000/svg">
<path fill-rule="evenodd" clip-rule="evenodd" d="M10.0036 2.6792C10.9066 1.6216 12.6428 0 14.8 0C17.9103 0 20 2.25056 20 5.6C20 11.574 10.9772 17.7803 10.4636 18.1336L10.4536 18.1405L9.9976 18.4L9.5432 18.0838C9.53815 18.0802 9.53163 18.0757 9.52367 18.0702C8.91773 17.6504 0 11.4725 0 5.6C0 2.25056 2.08968 0 5.2 0C7.37992 0 9.10728 1.62008 10.0036 2.6792ZM0.799967 5.59997C0.799967 11.2 9.99997 17.427 9.99997 17.427V17.4271C9.99997 17.4271 19.2 11.2668 19.2 5.59997C19.2 2.79997 17.6 0.799967 14.8 0.799967C12.0666 0.799967 9.99997 3.99997 9.99997 3.99997C9.99997 3.99997 7.96661 0.799967 5.19997 0.799967C2.39997 0.799967 0.799967 2.79997 0.799967 5.59997Z"/>
</symbol><symbol viewBox="0 0 16 2" id="minus" xmlns="http://www.w3.org/2000/svg">
<path fill-rule="evenodd" clip-rule="evenodd" d="M16 1.5H0V0.5H16V1.5Z"/>
</symbol><symbol viewBox="0 0 16 16" id="plus" xmlns="http://www.w3.org/2000/svg">
<path fill-rule="evenodd" clip-rule="evenodd" d="M7.5 7.5V0H8.5V7.5H16V8.5H8.5V16H7.5V8.5H0V7.5H7.5Z"/>
</symbol><symbol viewBox="0 0 32 32" id="s-facebook" xmlns="http://www.w3.org/2000/svg">
<path fill-rule="evenodd" clip-rule="evenodd" d="M16 0C7.16344 0 0 7.16344 0 16C0 24.8366 7.16344 32 16 32C24.8366 32 32 24.8366 32 16C32 7.16344 24.8366 0 16 0ZM17.6677 16.7028V25.4077H14.066V16.7031H12.2667V13.7034H14.066V11.9024C14.066 9.4552 15.0821 8 17.9688 8H20.372V11.0001H18.8698C17.7461 11.0001 17.6718 11.4193 17.6718 12.2017L17.6677 13.7031H20.3891L20.0706 16.7028H17.6677Z"/>
</symbol><symbol viewBox="0 0 32 32" id="s-instagram" xmlns="http://www.w3.org/2000/svg">
<path fill-rule="evenodd" clip-rule="evenodd" d="M16 0C7.16344 0 0 7.16344 0 16C0 24.8366 7.16344 32 16 32C24.8366 32 32 24.8366 32 16C32 7.16344 24.8366 0 16 0ZM12.4822 7.51822C13.3924 7.4768 13.6833 7.46667 16.0008 7.46667H15.9981C18.3164 7.46667 18.6062 7.4768 19.5164 7.51822C20.4248 7.55982 21.0453 7.70365 21.5893 7.91467C22.1511 8.13245 22.6258 8.42401 23.1004 8.89868C23.5751 9.373 23.8667 9.84909 24.0853 10.4103C24.2951 10.9529 24.4391 11.573 24.4818 12.4815C24.5227 13.3917 24.5333 13.6826 24.5333 16.0001C24.5333 18.3176 24.5227 18.6078 24.4818 19.518C24.4391 20.4261 24.2951 21.0464 24.0853 21.5891C23.8667 22.1502 23.5751 22.6263 23.1004 23.1006C22.6263 23.5753 22.1509 23.8675 21.5898 24.0855C21.0469 24.2965 20.4261 24.4404 19.5176 24.482C18.6074 24.5234 18.3174 24.5335 15.9997 24.5335C13.6824 24.5335 13.3917 24.5234 12.4815 24.482C11.5732 24.4404 10.9529 24.2965 10.41 24.0855C9.84909 23.8675 9.373 23.5753 8.89886 23.1006C8.42437 22.6263 8.13281 22.1502 7.91467 21.5889C7.70382 21.0464 7.56 20.4263 7.51822 19.5178C7.47698 18.6076 7.46667 18.3176 7.46667 16.0001C7.46667 13.6826 7.47733 13.3915 7.51804 12.4813C7.55893 11.5732 7.70294 10.9529 7.91449 10.4102C8.13316 9.84909 8.42472 9.373 8.89939 8.89868C9.37371 8.42419 9.8498 8.13263 10.4111 7.91467C10.9536 7.70365 11.5737 7.55982 12.4822 7.51822Z"/>
<path fill-rule="evenodd" clip-rule="evenodd" d="M15.2355 9.00457C15.3841 9.00434 15.544 9.00441 15.7166 9.00449L16.001 9.00457C18.2794 9.00457 18.5495 9.01275 19.4492 9.05364C20.2812 9.09169 20.7328 9.23071 21.0336 9.34751C21.4318 9.50218 21.7157 9.68707 22.0142 9.98574C22.3129 10.2844 22.4978 10.5689 22.6528 10.9671C22.7696 11.2675 22.9088 11.7191 22.9467 12.5511C22.9876 13.4507 22.9964 13.7209 22.9964 15.9982C22.9964 18.2756 22.9876 18.5458 22.9467 19.4454C22.9086 20.2774 22.7696 20.729 22.6528 21.0294C22.4981 21.4276 22.3129 21.7112 22.0142 22.0097C21.7155 22.3084 21.432 22.4932 21.0336 22.6479C20.7331 22.7653 20.2812 22.9039 19.4492 22.942C18.5496 22.9829 18.2794 22.9917 16.001 22.9917C13.7224 22.9917 13.4524 22.9829 12.5528 22.942C11.7208 22.9036 11.2692 22.7645 10.9682 22.6477C10.57 22.4931 10.2856 22.3082 9.98689 22.0095C9.68822 21.7108 9.50333 21.4271 9.34831 21.0287C9.23151 20.7283 9.09231 20.2767 9.05444 19.4447C9.01355 18.5451 9.00537 18.2749 9.00537 15.9961C9.00537 13.7173 9.01355 13.4485 9.05444 12.549C9.09248 11.717 9.23151 11.2654 9.34831 10.9646C9.50298 10.5664 9.68822 10.2819 9.98689 9.98325C10.2856 9.68458 10.57 9.49969 10.9682 9.34467C11.269 9.22733 11.7208 9.08866 12.5528 9.05044C13.34 9.01489 13.6451 9.00422 15.2355 9.00244V9.00457ZM20.5558 10.4214C19.9904 10.4214 19.5318 10.8796 19.5318 11.4451C19.5318 12.0104 19.9904 12.4691 20.5558 12.4691C21.1211 12.4691 21.5798 12.0104 21.5798 11.4451C21.5798 10.8798 21.1211 10.4211 20.5558 10.4211V10.4214ZM11.6185 16C11.6185 13.5799 13.5805 11.6178 16.0006 11.6177C18.4207 11.6177 20.3823 13.5799 20.3823 16C20.3823 18.4201 18.4209 20.3814 16.0008 20.3814C13.5806 20.3814 11.6185 18.4201 11.6185 16Z"/>
<path fill-rule="evenodd" clip-rule="evenodd" d="M16.0007 13.1558C17.5716 13.1558 18.8452 14.4292 18.8452 16.0002C18.8452 17.5711 17.5716 18.8447 16.0007 18.8447C14.4297 18.8447 13.1562 17.5711 13.1562 16.0002C13.1562 14.4292 14.4297 13.1558 16.0007 13.1558V13.1558Z"/>
</symbol><symbol viewBox="0 0 32 32" id="s-twitter" xmlns="http://www.w3.org/2000/svg">
<path fill-rule="evenodd" clip-rule="evenodd" d="M16 0C7.16344 0 0 7.16344 0 16C0 24.8366 7.16344 32 16 32C24.8366 32 32 24.8366 32 16C32 7.16344 24.8366 0 16 0ZM15.5544 13.5586L15.5208 13.005C15.4201 11.5701 16.3042 10.2594 17.7032 9.75098C18.218 9.5702 19.0909 9.5476 19.6617 9.70578C19.8856 9.77357 20.3108 9.99955 20.613 10.2029L21.1614 10.5758L21.7658 10.3837C22.1015 10.282 22.5492 10.1125 22.7506 9.99955C22.9409 9.89786 23.1088 9.84137 23.1088 9.87526C23.1088 10.0673 22.6947 10.7227 22.3477 11.0842C21.8777 11.5927 22.012 11.6379 22.9633 11.2989C23.534 11.1068 23.5452 11.1068 23.4333 11.3215C23.3662 11.4345 23.0192 11.8299 22.6499 12.1915C22.0232 12.8129 21.9896 12.8807 21.9896 13.4005C21.9896 14.2027 21.6091 15.8749 21.2286 16.7901C20.5235 18.5075 19.0126 20.2814 17.5017 21.174C15.3753 22.4281 12.5438 22.7445 10.16 22.0101C9.36538 21.7615 8 21.1288 8 21.0158C8 20.9819 8.41409 20.9367 8.91772 20.9254C9.96973 20.9028 11.0218 20.609 11.9171 20.0893L12.5214 19.7277L11.8276 19.4905C10.8427 19.1515 9.95854 18.3719 9.73471 17.6375C9.66756 17.4002 9.68994 17.3889 10.3167 17.3889L10.9658 17.3776L10.4174 17.1177C9.76828 16.7901 9.17513 16.2364 8.88414 15.6715C8.6715 15.2647 8.4029 14.2366 8.48124 14.1575C8.50362 14.1236 8.73865 14.1914 9.00725 14.2818C9.77948 14.5642 9.8802 14.4964 9.43253 14.0219C8.59316 13.1632 8.33575 11.8864 8.73865 10.6775L8.92891 10.1351L9.66756 10.8695C11.1784 12.3497 12.9579 13.231 14.9948 13.4908L15.5544 13.5586Z"/>
</symbol><symbol viewBox="0 0 32 32" id="s-youtube" xmlns="http://www.w3.org/2000/svg">
<path fill-rule="evenodd" clip-rule="evenodd" d="M16 0C7.16344 0 0 7.16344 0 16C0 24.8366 7.16344 32 16 32C24.8366 32 32 24.8366 32 16C32 7.16344 24.8366 0 16 0ZM22.6677 10.4996C23.4021 10.7011 23.9804 11.2948 24.1767 12.0488C24.5333 13.4154 24.5333 16.2667 24.5333 16.2667C24.5333 16.2667 24.5333 19.1179 24.1767 20.4845C23.9804 21.2385 23.4021 21.8323 22.6677 22.0339C21.3369 22.4 16 22.4 16 22.4C16 22.4 10.6631 22.4 9.33217 22.0339C8.59782 21.8323 8.01949 21.2385 7.82322 20.4845C7.46667 19.1179 7.46667 16.2667 7.46667 16.2667C7.46667 16.2667 7.46667 13.4154 7.82322 12.0488C8.01949 11.2948 8.59782 10.7011 9.33217 10.4996C10.6631 10.1333 16 10.1333 16 10.1333C16 10.1333 21.3369 10.1333 22.6677 10.4996Z"/>
<path fill-rule="evenodd" clip-rule="evenodd" d="M14.3999 19.2V13.8667L18.6666 16.5335L14.3999 19.2Z"/>
</symbol><symbol viewBox="0 0 27 27" id="search" xmlns="http://www.w3.org/2000/svg">
<path fill-rule="evenodd" clip-rule="evenodd" d="M18.5236 17.7716L26.2906 25.5387C26.4921 25.7474 26.4892 26.0791 26.2841 26.2842C26.0789 26.4894 25.7473 26.4923 25.5386 26.2907L17.7716 18.5236C13.6848 22.2027 7.41061 21.9559 3.62549 17.9669C-0.159626 13.978 -0.0773115 7.69955 3.81109 3.8112C7.69948 -0.0771477 13.978 -0.159461 17.967 3.62561C21.956 7.41068 22.2029 13.6848 18.5236 17.7716ZM1.98363 11.0243C1.98363 16.0173 6.0313 20.0649 11.0244 20.0649C16.015 20.0591 20.0592 16.0149 20.0651 11.0243C20.0651 6.03132 16.0174 1.9837 11.0244 1.9837C6.0313 1.9837 1.98363 6.03132 1.98363 11.0243Z"/>
</symbol><symbol viewBox="0 0 19 23" id="user" xmlns="http://www.w3.org/2000/svg">
<path fill-rule="evenodd" clip-rule="evenodd" d="M15.0934 5.42961C15.6947 8.04541 14.4096 10.7298 11.995 11.9018C15.63 13.0124 18.1148 16.365 18.1198 20.1659V21.6059C18.1198 21.871 17.9049 22.0859 17.6398 22.0859C17.3747 22.0859 17.1598 21.871 17.1598 21.6059V20.1659C17.1598 15.9244 13.7214 12.4859 9.47984 12.4859C5.2383 12.4859 1.79984 15.9244 1.79984 20.1659V21.6059C1.79984 21.871 1.58494 22.0859 1.31984 22.0859C1.05475 22.0859 0.839844 21.871 0.839844 21.6059V20.1659C0.844914 16.365 3.32965 13.0124 6.96464 11.9018C4.55004 10.7298 3.26495 8.04541 3.86625 5.42961C4.46754 2.81381 6.79583 0.960007 9.47984 0.960007C12.1639 0.960007 14.4921 2.81381 15.0934 5.42961ZM9.47984 1.9259C6.82888 1.9259 4.67984 4.07493 4.67984 6.7259C4.68281 9.37564 6.8301 11.5229 9.47984 11.5259C12.1308 11.5259 14.2798 9.37687 14.2798 6.7259C14.2798 4.07493 12.1308 1.9259 9.47984 1.9259Z"/>
</symbol>

<symbol viewBox="0 0 22 26" id="app-store" xmlns="http://www.w3.org/2000/svg">
<path d="M17.8965 13.6943C17.8848 11.6963 18.79 10.1904 20.6182 9.08008C19.5957 7.61523 18.0488 6.80957 16.0098 6.6543C14.0791 6.50195 11.9668 7.7793 11.1934 7.7793C10.376 7.7793 8.50684 6.70703 7.03613 6.70703C4.00098 6.75391 0.775391 9.12695 0.775391 13.9551C0.775391 15.3818 1.03613 16.8555 1.55762 18.373C2.25488 20.3711 4.76855 25.2666 7.39062 25.1875C8.76172 25.1553 9.73144 24.2148 11.5156 24.2148C13.2471 24.2148 14.1436 25.1875 15.6729 25.1875C18.3184 25.1494 20.5918 20.6992 21.2539 18.6953C17.7061 17.0225 17.8965 13.7969 17.8965 13.6943ZM14.8174 4.75879C16.3027 2.99512 16.168 1.38965 16.124 0.8125C14.8115 0.888672 13.2939 1.70605 12.4297 2.71094C11.4775 3.78906 10.918 5.12207 11.0381 6.625C12.4561 6.7334 13.751 6.00391 14.8174 4.75879Z"/>
</symbol>


<symbol viewBox="0 0 24 28" id="google-play" xmlns="http://www.w3.org/2000/svg">
<path d="M4.91309 20.7294C4.91309 21.415 5.47266 21.9746 6.16113 21.9746H7.58789V25.5019C7.58789 26.3955 8.30566 27.1249 9.1875 27.1249C10.0723 27.1249 10.7871 26.3984 10.7871 25.5019V21.9716H13.2773V25.499C13.2773 26.3925 13.9951 27.122 14.877 27.122C15.7617 27.122 16.4766 26.3955 16.4766 25.499V21.9716H17.9033C18.5918 21.9716 19.1514 21.4121 19.1514 20.7265V9.14839H4.91309V20.7294ZM15.375 3.14839L16.6904 1.24409C16.7666 1.13276 16.749 0.983346 16.6465 0.910104C16.5439 0.839791 16.3975 0.874948 16.3213 0.986276L14.9561 2.96674C14.0566 2.61225 13.0547 2.41596 12.0029 2.41596C10.9512 2.41596 9.94922 2.61225 9.0498 2.96674L7.68457 0.989205C7.6084 0.877877 7.46191 0.839791 7.35937 0.913034C7.25684 0.983346 7.23926 1.12983 7.31543 1.24702L8.63086 3.15131C6.53906 4.12397 5.07422 5.96674 4.88672 8.12006H19.125C18.9316 5.96381 17.4639 4.12104 15.375 3.14839ZM8.99707 6.15131C8.8412 6.15131 8.68883 6.10509 8.55923 6.0185C8.42963 5.9319 8.32862 5.80882 8.26897 5.66482C8.20932 5.52081 8.19372 5.36235 8.22413 5.20948C8.25454 5.05661 8.32959 4.91618 8.43981 4.80597C8.55002 4.69575 8.69045 4.62069 8.84332 4.59029C8.9962 4.55988 9.15465 4.57548 9.29866 4.63513C9.44266 4.69478 9.56574 4.79579 9.65234 4.92539C9.73894 5.05499 9.78516 5.20736 9.78516 5.36323C9.78461 5.57208 9.70141 5.77221 9.55373 5.91989C9.40605 6.06757 9.20592 6.15077 8.99707 6.15131ZM15.1025 6.15131C14.9467 6.15131 14.7943 6.10509 14.6647 6.0185C14.5351 5.9319 14.4341 5.80882 14.3744 5.66482C14.3148 5.52081 14.2992 5.36235 14.3296 5.20948C14.36 5.05661 14.4351 4.91618 14.5453 4.80597C14.6555 4.69575 14.7959 4.62069 14.9488 4.59029C15.1017 4.55988 15.2601 4.57548 15.4041 4.63513C15.5481 4.69478 15.6712 4.79579 15.7578 4.92539C15.8444 5.05499 15.8906 5.20736 15.8906 5.36323C15.8901 5.57208 15.8069 5.77221 15.6592 5.91989C15.5115 6.06757 15.3114 6.15077 15.1025 6.15131ZM21.6475 9.10151C20.7627 9.10151 20.0478 9.82807 20.0478 10.7246V17.0644C20.0478 17.958 20.7656 18.6874 21.6475 18.6874C22.5322 18.6874 23.2471 17.9609 23.2471 17.0644V10.7216C23.25 9.82514 22.5352 9.10151 21.6475 9.10151ZM2.35254 9.10151C1.46777 9.10151 0.75293 9.82807 0.75293 10.7246V17.0644C0.75293 17.958 1.4707 18.6874 2.35254 18.6874C3.2373 18.6874 3.95215 17.9609 3.95215 17.0644V10.7216C3.95215 9.82514 3.23437 9.10151 2.35254 9.10151Z"/>
</symbol>



<symbol viewBox="0 0 24 18" id="twitter" xmlns="http://www.w3.org/2000/svg">
<path d="M23.25 2.13258C22.406 2.4993 21.513 2.74091 20.5992 2.84976C21.5595 2.28744 22.2817 1.39409 22.6303 0.337264C21.7224 0.868166 20.7307 1.24067 19.6978 1.43883C19.2629 0.982981 18.7397 0.620344 18.1603 0.372957C17.5808 0.125569 16.9571 -0.0014007 16.327 -0.000236203C13.7761 -0.000236203 11.7117 2.03414 11.7117 4.54195C11.7099 4.89078 11.7499 5.23857 11.8308 5.57789C10.0016 5.49214 8.2104 5.02551 6.57187 4.20785C4.93333 3.3902 3.48351 2.23953 2.31516 0.829451C1.90527 1.52044 1.6885 2.30885 1.6875 3.11226C1.6875 4.68726 2.50922 6.07945 3.75 6.89508C3.01487 6.87763 2.29481 6.68306 1.65094 6.32789V6.38414C1.65094 8.58726 3.24469 10.4201 5.35406 10.8373C4.9574 10.943 4.54864 10.9966 4.13812 10.9966C3.84683 10.9971 3.5562 10.9689 3.27047 10.9123C3.85687 12.717 5.56359 14.0295 7.58531 14.067C5.94252 15.333 3.9256 16.0173 1.85156 16.0123C1.48341 16.0117 1.11561 15.9898 0.75 15.9466C2.85993 17.2939 5.31255 18.0066 7.81594 17.9998C16.3172 17.9998 20.9616 11.0763 20.9616 5.07164C20.9616 4.87476 20.9564 4.67789 20.947 4.4857C21.8485 3.84448 22.6283 3.04763 23.25 2.13258Z"/>
</symbol>

<symbol viewBox="0 0 22 22" id="facebook" xmlns="http://www.w3.org/2000/svg">
<path fill-rule="evenodd" clip-rule="evenodd" d="M21.5 11.0637C21.5 5.26528 16.7984 0.563721 11 0.563721C5.20156 0.563721 0.5 5.26528 0.5 11.0637C0.5 16.3043 4.33906 20.6483 9.35938 21.4367V14.0998H6.69266V11.0637H9.35938V8.75044C9.35938 6.11934 10.9273 4.66481 13.3255 4.66481C14.4744 4.66481 15.6763 4.87013 15.6763 4.87013V7.45435H14.3516C13.048 7.45435 12.6402 8.26341 12.6402 9.09497V11.0637H15.552L15.087 14.0998H12.6406V21.4376C17.6609 20.6497 21.5 16.3058 21.5 11.0637Z"/>

</symbol>

<symbol viewBox="0 0 20 20" id="instagram" xmlns="http://www.w3.org/2000/svg">
<path d="M9.99999 6.87579C8.27968 6.87579 6.87577 8.2797 6.87577 10C6.87577 11.7203 8.27968 13.1242 9.99999 13.1242C11.7203 13.1242 13.1242 11.7203 13.1242 10C13.1242 8.2797 11.7203 6.87579 9.99999 6.87579ZM19.3703 10C19.3703 8.70626 19.382 7.42423 19.3094 6.13283C19.2367 4.63283 18.8945 3.30158 17.7976 2.2047C16.6984 1.10548 15.3695 0.765639 13.8695 0.692982C12.5758 0.620326 11.2937 0.632045 10.0023 0.632045C8.70858 0.632045 7.42655 0.620326 6.13515 0.692982C4.63515 0.765639 3.3039 1.10783 2.20702 2.2047C1.1078 3.30392 0.767958 4.63283 0.695302 6.13283C0.622645 7.42658 0.634364 8.70861 0.634364 10C0.634364 11.2914 0.622645 12.5758 0.695302 13.8672C0.767958 15.3672 1.11015 16.6985 2.20702 17.7953C3.30624 18.8945 4.63515 19.2344 6.13515 19.307C7.4289 19.3797 8.71093 19.368 10.0023 19.368C11.2961 19.368 12.5781 19.3797 13.8695 19.307C15.3695 19.2344 16.7008 18.8922 17.7976 17.7953C18.8969 16.6961 19.2367 15.3672 19.3094 13.8672C19.3844 12.5758 19.3703 11.2938 19.3703 10ZM9.99999 14.807C7.33983 14.807 5.19296 12.6602 5.19296 10C5.19296 7.33986 7.33983 5.19298 9.99999 5.19298C12.6601 5.19298 14.807 7.33986 14.807 10C14.807 12.6602 12.6601 14.807 9.99999 14.807ZM15.0039 6.11876C14.3828 6.11876 13.8812 5.6172 13.8812 4.99611C13.8812 4.37501 14.3828 3.87345 15.0039 3.87345C15.625 3.87345 16.1266 4.37501 16.1266 4.99611C16.1267 5.14359 16.0978 5.28966 16.0415 5.42595C15.9851 5.56224 15.9024 5.68607 15.7981 5.79036C15.6939 5.89464 15.57 5.97733 15.4337 6.03368C15.2974 6.09004 15.1514 6.11895 15.0039 6.11876Z"/>

</symbol>


<symbol viewBox="0 0 20 20" id="linkedin" xmlns="http://www.w3.org/2000/svg">
<path fill-rule="evenodd" clip-rule="evenodd" d="M7.429 6.969H11.143V8.819C11.678 7.755 13.05 6.799 15.111 6.799C19.062 6.799 20 8.917 20 12.803V20H16V13.688C16 11.475 15.465 10.227 14.103 10.227C12.214 10.227 11.429 11.572 11.429 13.687V20H7.429V6.969ZM0.57 19.83H4.57V6.799H0.57V19.83ZM5.143 2.55C5.14315 2.88528 5.07666 3.21724 4.94739 3.52659C4.81812 3.83594 4.62865 4.11651 4.39 4.352C3.9064 4.83262 3.25181 5.10165 2.57 5.1C1.88939 5.09954 1.23631 4.8312 0.752 4.353C0.514211 4.11671 0.325386 3.83582 0.196344 3.52643C0.0673015 3.21704 0.000579132 2.88522 0 2.55C0 1.873 0.27 1.225 0.753 0.747C1.23689 0.268158 1.89024 -0.000299211 2.571 2.50265e-07C3.253 2.50265e-07 3.907 0.269 4.39 0.747C4.872 1.225 5.143 1.873 5.143 2.55Z"/>

</symbol>


<symbol viewBox="0 0 24 24" id="tiktok" xmlns="http://www.w3.org/2000/svg">
<path d="M19.59 6.69C18.5932 6.47079 17.6914 5.94144 17.0141 5.17789C16.3368 4.41435 15.9187 3.45587 15.82 2.44V2H12.37V15.67C12.3707 16.2766 12.1805 16.868 11.8264 17.3604C11.4723 17.8529 10.9723 18.2215 10.3971 18.414C9.82184 18.6065 9.20065 18.6131 8.62147 18.4329C8.04229 18.2527 7.53449 17.8948 7.16999 17.41C6.84344 16.9808 6.64348 16.4689 6.59272 15.932C6.54196 15.3951 6.64243 14.8548 6.88277 14.372C7.12311 13.8892 7.49372 13.4834 7.9527 13.2003C8.41169 12.9172 8.94072 12.7681 9.47999 12.77C9.77823 12.7683 10.075 12.8121 10.36 12.9V9.4C10.0283 9.35893 9.6941 9.34222 9.35999 9.35C8.1293 9.38288 6.93491 9.77393 5.92308 10.4753C4.91124 11.1766 4.12588 12.1578 3.66317 13.2986C3.20045 14.4395 3.08047 15.6905 3.31791 16.8986C3.55535 18.1066 4.1399 19.2191 4.99999 20.1C5.88148 20.9962 7.00948 21.6101 8.24069 21.8638C9.47189 22.1175 10.7507 21.9994 11.9146 21.5246C13.0786 21.0498 14.0751 20.2397 14.7776 19.1973C15.4801 18.1548 15.8569 16.9271 15.86 15.67V8.67C17.2515 9.66395 18.92 10.1956 20.63 10.19V6.79C20.2941 6.79139 19.959 6.75787 19.63 6.69H19.59Z"/>
</symbol>


<symbol  viewBox="0 0 24 24" id="youtube" xmlns="http://www.w3.org/2000/svg">
<path d="M22.0617 6.93984C21.9422 6.49462 21.7078 6.0886 21.382 5.76243C21.0563 5.43625 20.6505 5.20136 20.2055 5.08125C18.5672 4.64063 12 4.64062 12 4.64062C12 4.64062 5.43281 4.64062 3.79453 5.07891C3.34927 5.19862 2.94334 5.43339 2.61751 5.75962C2.29169 6.08586 2.05744 6.49208 1.93828 6.9375C1.5 8.57812 1.5 12 1.5 12C1.5 12 1.5 15.4219 1.93828 17.0602C2.17969 17.9648 2.89219 18.6773 3.79453 18.9188C5.43281 19.3594 12 19.3594 12 19.3594C12 19.3594 18.5672 19.3594 20.2055 18.9188C21.1102 18.6773 21.8203 17.9648 22.0617 17.0602C22.5 15.4219 22.5 12 22.5 12C22.5 12 22.5 8.57813 22.0617 6.93984ZM9.91406 15.1406V8.85938L15.3516 11.9766L9.91406 15.1406Z"/>
</symbol>

<symbol  viewBox="0 0 22 24" id="mail-icon" xmlns="http://www.w3.org/2000/svg">
<path d="M20.7391 0.93077C20.6001 0.815358 20.4312 0.741828 20.252 0.718748C20.0728 0.695668 19.8907 0.723989 19.727 0.800411L0.0809937 10.0218V11.8062L8.33273 15.1068L13.6257 23.25H15.4104L21.0494 1.9031C21.0952 1.72828 21.0903 1.54407 21.0353 1.37192C20.9804 1.19977 20.8777 1.04678 20.7391 0.93077ZM14.3085 21.5481L9.75895 14.5486L16.7599 6.88066L15.6522 5.86929L8.59645 13.597L1.79287 10.8755L19.298 2.65872L14.3085 21.5481Z"/>
</symbol>



</svg>