<svg width="146" height="120" viewBox="0 0 146 120" fill="none" xmlns="http://www.w3.org/2000/svg">
<path d="M119.666 91.423C120.698 72.7245 116.768 53.9602 102.376 40.065C89.3859 27.5231 71.762 25.1597 63.3776 43.6589C59.4085 52.416 60.8412 65.2717 69.7115 70.8408C79.5937 77.0453 87.3225 67.4889 87 60C86.2469 42.5088 56.6781 44.2536 36.5 43.6589C12.6044 42.9547 0.852925 21.698 0.999961 21.6289" stroke="white" stroke-miterlimit="1.5" stroke-linecap="round" stroke-linejoin="round"/>
<path d="M136.351 77.7485C134.253 78.321 132.627 79.6527 130.933 80.9029C125.372 85.0077 120.748 91.107 119.633 97.8446C118.38 90.5722 114.171 81.552 106.601 78.7139" stroke="white" stroke-miterlimit="1.5" stroke-linecap="round" stroke-linejoin="round"/>
</svg>
