<svg width="200" height="200" viewBox="0 0 200 200" fill="none" xmlns="http://www.w3.org/2000/svg">
<g filter="url(#filter0_b_1_533)">
<circle cx="100" cy="100" r="100" fill="#818698" fill-opacity="0.2"/>
</g>
<path d="M130.872 22.1076L128.037 30.0318L123.671 19.5316L119.995 18.2166L116.222 28.7622L118.934 29.7323L121.763 21.8231L126.12 32.3029L129.811 33.6232L133.583 23.0776L130.872 22.1076Z" fill="white"/>
<path d="M153.365 38.04L154.817 36.1094L145.356 28.991L138.622 37.9408L140.924 39.6723L143.03 36.8723L149.423 41.682L150.885 39.7387L144.493 34.9289L146.205 32.6531L153.365 38.04Z" fill="white"/>
<path d="M171.976 55.3605L163.83 44.2711L161.883 45.7014L165.103 50.0856L158.024 55.2859L159.729 57.607L166.808 52.4066L170.029 56.7909L171.976 55.3605Z" fill="white"/>
<path d="M185.834 98.1618L185.374 94.3012L176.97 90.5824L184.263 84.9912L183.803 81.1305L172.682 82.4571L173.023 85.3168L180.649 84.4072L173.574 89.9401L173.821 92.0054L181.998 95.719L174.372 96.6287L174.713 99.4884L185.834 98.1618Z" fill="white"/>
<path d="M171.905 121.899L171.168 124.996L183.405 121.957L184.305 118.174L174.748 109.961L174.014 113.043L176.055 114.762L174.502 121.284L171.905 121.899ZM177.893 116.302L181.783 119.58L176.836 120.738L177.893 116.302Z" fill="white"/>
<path d="M167.081 148.951C169.21 150.254 171.499 149.61 172.826 147.44L177.42 139.934L167.867 134.088L166.364 136.544L168.916 138.106L166.494 142.064L162.998 142.044L161.227 144.937L165.143 144.914C164.863 146.506 165.525 147.999 167.081 148.951ZM173.856 141.129L171.183 145.496C170.732 146.233 170.031 147.38 168.584 146.495C167.151 145.618 167.853 144.471 168.304 143.734L170.976 139.367L173.856 141.129Z" fill="white"/>
<path d="M151.315 171.157L154.638 168.323L156.943 158.722L160.712 163.141L162.903 161.272L155.635 152.751L153.444 154.62L154.835 156.251L153.848 160.395L147.077 160.051L144.046 162.636L153.247 162.969L151.315 171.157Z" fill="white"/>
<path d="M128.532 180.814L129.423 182.922L140.328 178.31L135.966 167.994L125.061 172.606L125.952 174.713L134.204 171.223L135.089 173.316L126.837 176.806L127.647 178.722L135.899 175.232L136.784 177.324L128.532 180.814Z" fill="white"/>
<path d="M104.161 188.103L117.841 186.622L117.581 184.22L112.173 184.806L111.227 176.073L108.364 176.383L109.309 185.116L103.901 185.701L104.161 188.103Z" fill="white"/>
<path d="M82.8422 186.371L91.4778 188.064L93.6326 177.074L90.8064 176.519L90.2307 179.456L84.4213 178.317C81.9249 177.827 79.9056 179.062 79.4254 181.511C78.9452 183.96 80.3457 185.882 82.8422 186.371ZM84.7416 180.841L89.7659 181.826L89.1164 185.139L84.0921 184.154C83.2442 183.988 81.9253 183.73 82.2516 182.065C82.5748 180.417 83.8937 180.675 84.7416 180.841Z" fill="white"/>
<path d="M68.4216 172.731L64.3925 180.536L66.9516 181.857L72.089 171.905L61.8524 166.621L60.7442 168.768L68.4216 172.731Z" fill="white"/>
<path d="M45.678 153.657L43.41 151.422L39.6748 163.465L42.4443 166.194L54.4195 162.27L52.1629 160.047L49.6349 160.903L44.8595 156.197L45.678 153.657ZM47.3665 161.678L42.5474 163.308L44.1183 158.477L47.3665 161.678Z" fill="white"/>
<path d="M32.3181 146.582C35.6451 144.9 36.5198 142.091 34.2963 137.693C32.2822 133.709 29.7437 132.482 26.7151 133.691L28.0362 136.304C29.7867 135.724 31.0646 136.655 32.1402 138.783C33.4541 141.382 33.0748 142.972 31.0187 144.011C28.9768 145.044 27.4928 144.414 26.1717 141.801C25.0888 139.659 25.089 138.099 26.5798 137.04L25.2587 134.427C22.5043 136.143 22.0015 138.907 24.0156 142.891C26.2391 147.289 29.0055 148.256 32.3181 146.582Z" fill="white"/>
<path d="M16.7701 112.313L14.5156 112.703L16.5334 124.37L27.5696 122.461L25.5517 110.794L23.2972 111.184L24.8242 120.013L22.5854 120.401L21.0584 111.572L19.0088 111.926L20.5359 120.755L18.2971 121.142L16.7701 112.313Z" fill="white"/>
<path d="M29.7822 74.1763L27.568 75.3131C26.8967 74.5258 25.9393 73.949 24.7208 73.5572C21.2022 72.4258 18.6011 73.8247 17.0975 78.5009C15.5889 83.1923 16.8769 85.825 20.4107 86.9613C23.9597 88.1025 26.5559 86.7188 28.0644 82.0274C28.5689 80.4585 28.7622 79.1257 28.659 77.9832L31.0947 76.7328L29.7822 74.1763ZM21.2923 84.2195C19.1141 83.5192 18.4767 82.1041 19.3975 79.2405C20.3183 76.3769 21.6762 75.6035 23.8392 76.299C26.0173 76.9994 26.6803 78.4394 25.7644 81.2878C24.8485 84.1362 23.4857 84.9248 21.2923 84.2195Z" fill="white"/>
<path d="M34.1119 50.408L32.246 49.0838L25.3933 58.7391L34.5267 65.2215L41.3794 55.5661L39.5136 54.2419L34.3277 61.5486L32.4749 60.2336L37.6608 52.9269L35.9646 51.723L30.7787 59.0298L28.926 57.7148L34.1119 50.408Z" fill="white"/>
<path d="M50.8693 34.344L49.4391 32.5581L40.1975 39.9594L47.1987 48.7014L56.4403 41.3002L55.01 39.5143L48.0164 45.1153L46.5962 43.3419L53.5898 37.7409L52.2896 36.1174L45.2959 41.7184L43.8757 39.945L50.8693 34.344Z" fill="white"/>
<path d="M73.0986 25.9403C73.3885 25.1535 73.4021 24.3217 73.1124 23.5931C72.5036 22.0617 71.2962 21.1471 68.9322 22.087L59.7735 25.7283L63.9114 36.1359L73.4269 32.3527C75.7909 31.4128 76.3085 29.7263 75.6109 27.9718C75.1321 26.7675 74.2094 26.1357 73.0986 25.9403ZM63.2182 26.5971L68.7343 24.404C69.4628 24.1144 70.117 23.8543 70.5426 24.9248C70.9741 26.0101 70.3199 26.2702 69.6063 26.554L69.5914 26.5599L64.0754 28.753L63.2182 26.5971ZM71.9511 30.5461L65.766 33.0052L64.8911 30.8048L71.0762 28.3457C71.7899 28.0619 72.4441 27.8018 72.8815 28.9021C73.3189 30.0023 72.6647 30.2624 71.9511 30.5461Z" fill="white"/>
<defs>
<filter id="filter0_b_1_533" x="-50" y="-50" width="300" height="300" filterUnits="userSpaceOnUse" color-interpolation-filters="sRGB">
<feFlood flood-opacity="0" result="BackgroundImageFix"/>
<feGaussianBlur in="BackgroundImageFix" stdDeviation="25"/>
<feComposite in2="SourceAlpha" operator="in" result="effect1_backgroundBlur_1_533"/>
<feBlend mode="normal" in="SourceGraphic" in2="effect1_backgroundBlur_1_533" result="shape"/>
</filter>
</defs>
</svg>
