<svg width="24" height="18" viewBox="0 0 24 18" fill="none" xmlns="http://www.w3.org/2000/svg">
<path d="M23.25 2.13258C22.406 2.4993 21.513 2.74091 20.5992 2.84976C21.5595 2.28744 22.2817 1.39409 22.6303 0.337264C21.7224 0.868166 20.7307 1.24067 19.6978 1.43883C19.2629 0.982981 18.7397 0.620344 18.1603 0.372957C17.5808 0.125569 16.9571 -0.0014007 16.327 -0.000236203C13.7761 -0.000236203 11.7117 2.03414 11.7117 4.54195C11.7099 4.89078 11.7499 5.23857 11.8308 5.57789C10.0016 5.49214 8.2104 5.02551 6.57187 4.20785C4.93333 3.3902 3.48351 2.23953 2.31516 0.829451C1.90527 1.52044 1.6885 2.30885 1.6875 3.11226C1.6875 4.68726 2.50922 6.07945 3.75 6.89508C3.01487 6.87763 2.29481 6.68306 1.65094 6.32789V6.38414C1.65094 8.58726 3.24469 10.4201 5.35406 10.8373C4.9574 10.943 4.54864 10.9966 4.13812 10.9966C3.84683 10.9971 3.5562 10.9689 3.27047 10.9123C3.85687 12.717 5.56359 14.0295 7.58531 14.067C5.94252 15.333 3.9256 16.0173 1.85156 16.0123C1.48341 16.0117 1.11561 15.9898 0.75 15.9466C2.85993 17.2939 5.31255 18.0066 7.81594 17.9998C16.3172 17.9998 20.9616 11.0763 20.9616 5.07164C20.9616 4.87476 20.9564 4.67789 20.947 4.4857C21.8485 3.84448 22.6283 3.04763 23.25 2.13258Z" fill="#818698"/>
</svg>
