<svg width="24" height="28" viewBox="0 0 24 28" fill="none" xmlns="http://www.w3.org/2000/svg">
<path d="M4.91309 20.7294C4.91309 21.415 5.47266 21.9746 6.16113 21.9746H7.58789V25.5019C7.58789 26.3955 8.30566 27.1249 9.1875 27.1249C10.0723 27.1249 10.7871 26.3984 10.7871 25.5019V21.9716H13.2773V25.499C13.2773 26.3925 13.9951 27.122 14.877 27.122C15.7617 27.122 16.4766 26.3955 16.4766 25.499V21.9716H17.9033C18.5918 21.9716 19.1514 21.4121 19.1514 20.7265V9.14839H4.91309V20.7294ZM15.375 3.14839L16.6904 1.24409C16.7666 1.13276 16.749 0.983346 16.6465 0.910104C16.5439 0.839791 16.3975 0.874948 16.3213 0.986276L14.9561 2.96674C14.0566 2.61225 13.0547 2.41596 12.0029 2.41596C10.9512 2.41596 9.94922 2.61225 9.0498 2.96674L7.68457 0.989205C7.6084 0.877877 7.46191 0.839791 7.35937 0.913034C7.25684 0.983346 7.23926 1.12983 7.31543 1.24702L8.63086 3.15131C6.53906 4.12397 5.07422 5.96674 4.88672 8.12006H19.125C18.9316 5.96381 17.4639 4.12104 15.375 3.14839ZM8.99707 6.15131C8.8412 6.15131 8.68883 6.10509 8.55923 6.0185C8.42963 5.9319 8.32862 5.80882 8.26897 5.66482C8.20932 5.52081 8.19372 5.36235 8.22413 5.20948C8.25454 5.05661 8.32959 4.91618 8.43981 4.80597C8.55002 4.69575 8.69045 4.62069 8.84332 4.59029C8.9962 4.55988 9.15465 4.57548 9.29866 4.63513C9.44266 4.69478 9.56574 4.79579 9.65234 4.92539C9.73894 5.05499 9.78516 5.20736 9.78516 5.36323C9.78461 5.57208 9.70141 5.77221 9.55373 5.91989C9.40605 6.06757 9.20592 6.15077 8.99707 6.15131ZM15.1025 6.15131C14.9467 6.15131 14.7943 6.10509 14.6647 6.0185C14.5351 5.9319 14.4341 5.80882 14.3744 5.66482C14.3148 5.52081 14.2992 5.36235 14.3296 5.20948C14.36 5.05661 14.4351 4.91618 14.5453 4.80597C14.6555 4.69575 14.7959 4.62069 14.9488 4.59029C15.1017 4.55988 15.2601 4.57548 15.4041 4.63513C15.5481 4.69478 15.6712 4.79579 15.7578 4.92539C15.8444 5.05499 15.8906 5.20736 15.8906 5.36323C15.8901 5.57208 15.8069 5.77221 15.6592 5.91989C15.5115 6.06757 15.3114 6.15077 15.1025 6.15131ZM21.6475 9.10151C20.7627 9.10151 20.0478 9.82807 20.0478 10.7246V17.0644C20.0478 17.958 20.7656 18.6874 21.6475 18.6874C22.5322 18.6874 23.2471 17.9609 23.2471 17.0644V10.7216C23.25 9.82514 22.5352 9.10151 21.6475 9.10151ZM2.35254 9.10151C1.46777 9.10151 0.75293 9.82807 0.75293 10.7246V17.0644C0.75293 17.958 1.4707 18.6874 2.35254 18.6874C3.2373 18.6874 3.95215 17.9609 3.95215 17.0644V10.7216C3.95215 9.82514 3.23437 9.10151 2.35254 9.10151Z" fill="#1D1E22"/>
</svg>
