<svg width="115" height="83" viewBox="0 0 115 83" fill="none" xmlns="http://www.w3.org/2000/svg">
<path fill-rule="evenodd" clip-rule="evenodd" d="M3.19231 81.4167C3.19231 80.5422 2.47769 79.8333 1.59615 79.8333C0.714623 79.8333 1.07433e-07 80.5422 6.92097e-08 81.4167C3.09862e-08 82.2911 0.714622 83 1.59615 83C2.47769 83 3.19231 82.2911 3.19231 81.4167ZM19.1538 81.4167C19.1538 80.5422 18.4392 79.8333 17.5577 79.8333C16.6762 79.8333 15.9615 80.5422 15.9615 81.4167C15.9615 82.2911 16.6762 83 17.5577 83C18.4392 83 19.1538 82.2911 19.1538 81.4167ZM33.5192 79.8333C34.4008 79.8333 35.1154 80.5422 35.1154 81.4167C35.1154 82.2911 34.4008 83 33.5192 83C32.6377 83 31.9231 82.2911 31.9231 81.4167C31.9231 80.5422 32.6377 79.8333 33.5192 79.8333ZM51.0769 81.4167C51.0769 80.5422 50.3623 79.8333 49.4808 79.8333C48.5992 79.8333 47.8846 80.5422 47.8846 81.4167C47.8846 82.2911 48.5992 83 49.4808 83C50.3623 83 51.0769 82.2911 51.0769 81.4167ZM65.4423 79.8333C66.3238 79.8333 67.0385 80.5422 67.0385 81.4167C67.0385 82.2911 66.3238 83 65.4423 83C64.5608 83 63.8462 82.2911 63.8462 81.4167C63.8462 80.5422 64.5608 79.8333 65.4423 79.8333ZM83 81.4167C83 80.5422 82.2854 79.8333 81.4038 79.8333C80.5223 79.8333 79.8077 80.5422 79.8077 81.4167C79.8077 82.2911 80.5223 83 81.4038 83C82.2854 83 83 82.2911 83 81.4167ZM1.59615 64C2.47769 64 3.19231 64.7089 3.19231 65.5833C3.19231 66.4578 2.47769 67.1667 1.59615 67.1667C0.714623 67.1667 7.23083e-07 66.4578 7.61307e-07 65.5833C7.9953e-07 64.7089 0.714623 64 1.59615 64ZM19.1538 65.5833C19.1538 64.7089 18.4392 64 17.5577 64C16.6762 64 15.9615 64.7089 15.9615 65.5833C15.9615 66.4578 16.6762 67.1667 17.5577 67.1667C18.4392 67.1667 19.1538 66.4578 19.1538 65.5833ZM33.5192 64C34.4008 64 35.1154 64.7089 35.1154 65.5833C35.1154 66.4578 34.4008 67.1667 33.5192 67.1667C32.6377 67.1667 31.9231 66.4578 31.9231 65.5833C31.9231 64.7089 32.6377 64 33.5192 64ZM51.0769 65.5833C51.0769 64.7089 50.3623 64 49.4808 64C48.5992 64 47.8846 64.7089 47.8846 65.5833C47.8846 66.4578 48.5992 67.1667 49.4808 67.1667C50.3623 67.1667 51.0769 66.4578 51.0769 65.5833ZM65.4423 64C66.3238 64 67.0385 64.7089 67.0385 65.5833C67.0385 66.4578 66.3238 67.1667 65.4423 67.1667C64.5608 67.1667 63.8462 66.4578 63.8462 65.5833C63.8462 64.7089 64.5608 64 65.4423 64ZM83 65.5833C83 64.7089 82.2854 64 81.4038 64C80.5223 64 79.8077 64.7089 79.8077 65.5833C79.8077 66.4578 80.5223 67.1667 81.4038 67.1667C82.2854 67.1667 83 66.4578 83 65.5833Z" fill="white"/>
<path fill-rule="evenodd" clip-rule="evenodd" d="M113.417 79.8077C112.542 79.8077 111.833 80.5223 111.833 81.4038C111.833 82.2854 112.542 83 113.417 83C114.291 83 115 82.2854 115 81.4038C115 80.5223 114.291 79.8077 113.417 79.8077ZM113.417 63.8462C112.542 63.8462 111.833 64.5608 111.833 65.4423C111.833 66.3238 112.542 67.0385 113.417 67.0385C114.291 67.0385 115 66.3238 115 65.4423C115 64.5608 114.291 63.8462 113.417 63.8462ZM111.833 49.4808C111.833 48.5992 112.542 47.8846 113.417 47.8846C114.291 47.8846 115 48.5992 115 49.4808C115 50.3623 114.291 51.0769 113.417 51.0769C112.542 51.0769 111.833 50.3623 111.833 49.4808ZM113.417 31.9231C112.542 31.9231 111.833 32.6377 111.833 33.5192C111.833 34.4008 112.542 35.1154 113.417 35.1154C114.291 35.1154 115 34.4008 115 33.5192C115 32.6377 114.291 31.9231 113.417 31.9231ZM111.833 17.5577C111.833 16.6762 112.542 15.9615 113.417 15.9615C114.291 15.9615 115 16.6762 115 17.5577C115 18.4392 114.291 19.1538 113.417 19.1538C112.542 19.1538 111.833 18.4392 111.833 17.5577ZM113.417 0C112.542 0 111.833 0.71463 111.833 1.59615C111.833 2.47769 112.542 3.19231 113.417 3.19231C114.291 3.19231 115 2.47769 115 1.59615C115 0.71463 114.291 0 113.417 0ZM96 81.4038C96 80.5223 96.7089 79.8077 97.5833 79.8077C98.4578 79.8077 99.1667 80.5223 99.1667 81.4038C99.1667 82.2854 98.4578 83 97.5833 83C96.7089 83 96 82.2854 96 81.4038ZM97.5833 63.8462C96.7089 63.8462 96 64.5608 96 65.4423C96 66.3238 96.7089 67.0385 97.5833 67.0385C98.4578 67.0385 99.1667 66.3238 99.1667 65.4423C99.1667 64.5608 98.4578 63.8462 97.5833 63.8462ZM96 49.4808C96 48.5992 96.7089 47.8846 97.5833 47.8846C98.4578 47.8846 99.1667 48.5992 99.1667 49.4808C99.1667 50.3623 98.4578 51.0769 97.5833 51.0769C96.7089 51.0769 96 50.3623 96 49.4808ZM97.5833 31.9231C96.7089 31.9231 96 32.6377 96 33.5192C96 34.4008 96.7089 35.1154 97.5833 35.1154C98.4578 35.1154 99.1667 34.4008 99.1667 33.5192C99.1667 32.6377 98.4578 31.9231 97.5833 31.9231ZM96 17.5577C96 16.6762 96.7089 15.9615 97.5833 15.9615C98.4578 15.9615 99.1667 16.6762 99.1667 17.5577C99.1667 18.4392 98.4578 19.1538 97.5833 19.1538C96.7089 19.1538 96 18.4392 96 17.5577ZM97.5833 0C96.7089 0 96 0.71463 96 1.59615C96 2.47769 96.7089 3.19231 97.5833 3.19231C98.4578 3.19231 99.1667 2.47769 99.1667 1.59615C99.1667 0.71463 98.4578 0 97.5833 0Z" fill="white"/>
</svg>
